<?xml version="1.0" encoding="UTF-8"?>
<svg width="164px" height="48px" viewBox="0 0 164 48" version="1.1" xmlns="http://www.w3.org/2000/svg" xmlns:xlink="http://www.w3.org/1999/xlink">
    <!-- Generator: Sketch 54.1 (76490) - https://sketchapp.com -->
    <title>BIGIDEA LOGO</title>
    <desc>Created with Sketch.</desc>
    <defs>
        <polygon id="path-1" points="0 0 164 0 164 48 0 48"></polygon>
    </defs>
    <g id="WEBSITE" stroke="none" stroke-width="1" fill="none" fill-rule="evenodd">
        <g id="Camp-page" transform="translate(-1247.000000, -54.000000)">
            <g id="Top-Navigation-Bar-2" transform="translate(0.000000, 37.000000)">
                <g id="BIGIDEA-LOGO-WHITE" transform="translate(1247.000000, 17.000000)">
                    <g id="Group-3">
                        <mask id="mask-2" fill="white">
                            <use xlink:href="#path-1"></use>
                        </mask>
                        <g id="Clip-2"></g>
                        <path d="M142.832455,27.5855033 L144.84643,14.9152636 L144.92882,14.9152636 L146.945292,27.5855033 L142.832455,27.5855033 Z M141.722272,9.02972754 L136.252082,38.5384735 L141.187153,38.5384735 L142.091778,31.9994485 L147.684304,31.9994485 L148.588928,38.5384735 L153.523168,38.5384735 L148.055475,9.02972754 L141.722272,9.02972754 Z M133.621431,9.02972754 L119.970507,9.02972754 L119.970507,38.5384735 L134.197328,38.5384735 L134.197328,34.1253554 L125.068694,34.1253554 L125.068694,25.4595964 L131.648234,25.4595964 L131.648234,21.0464784 L125.068694,21.0464784 L125.068694,13.4436728 L133.621431,13.4436728 L133.621431,9.02972754 Z M107.100207,13.1988212 C108.470875,13.1988212 109.423768,13.4990952 109.957222,14.0979889 C110.49234,14.6968825 110.759483,15.7738984 110.759483,17.3265549 L110.759483,30.2424733 C110.759483,31.7951299 110.49234,32.8713185 109.957222,33.4710393 C109.423768,34.069933 108.470875,34.370207 107.100207,34.370207 L105.331737,34.370207 L105.331737,13.1988212 L107.100207,13.1988212 Z M107.799272,9.02972754 L100.232717,9.02972754 L100.232717,38.5393007 L107.799272,38.5393007 C110.457387,38.5393007 112.465536,37.8171541 113.822057,36.3728609 C115.180242,34.9285677 115.858502,32.6818895 115.858502,29.6295173 L115.858502,17.9395109 C115.858502,14.8887931 115.180242,12.6412877 113.822057,11.1953401 C112.465536,9.75187413 110.457387,9.02972754 107.799272,9.02972754 L107.799272,9.02972754 Z M91.1448623,38.5393007 L96.2438814,38.5393007 L96.2438814,9.02972754 L91.1448623,9.02972754 L91.1448623,38.5393007 Z M72.0037754,13.2393541 C71.6875314,14.1658194 71.5310738,15.1460527 71.5310738,16.1825357 L71.5310738,31.3864925 C71.5310738,33.7572509 72.1610652,35.6110087 73.4227125,36.9452841 C74.6826954,38.2803867 76.3279966,38.947938 78.3561196,38.947938 C79.5628403,38.947938 80.5290491,38.7361745 81.2555782,38.314302 C81.9821072,37.8924294 82.7286096,37.2306685 83.4959175,36.3315009 L84.442153,38.5393007 L86.9096888,38.5393007 L86.9096888,23.5801954 L78.5616782,23.5801954 L78.5616782,27.5863305 L81.8115019,27.5863305 L81.8115019,30.4459648 C81.8115019,31.9183828 81.6051111,32.9664467 81.1939938,33.5934651 C80.7828765,34.2196564 80.0563475,34.5331656 79.0152388,34.5331656 C78.1372454,34.5331656 77.5189051,34.2535716 77.1635467,33.6960381 C76.807356,33.1376773 76.6300929,32.3816155 76.6300929,31.4278526 L76.6300929,16.2644286 C76.6300929,15.0103917 76.8489671,14.1592018 77.2875476,13.7100315 C77.7261282,13.2592069 78.2604142,13.0350354 78.8912378,13.0350354 C79.384745,13.0350354 79.8158355,13.1161011 80.186174,13.2807142 C80.5556802,13.4436728 80.8644342,13.7373292 81.1107717,14.1592018 C81.3596058,14.5819015 81.5368689,15.1543247 81.6467221,15.8756441 C81.7549109,16.5977907 81.8115019,17.5035759 81.8115019,18.593827 L86.6625191,18.593827 L86.6625191,16.7127716 C86.6625191,15.6233478 86.5043971,14.5876919 86.1889852,13.6074586 C85.8752379,12.6255709 85.3950463,11.7677633 84.7509071,11.0332087 C84.1059357,10.2969997 83.3053389,9.71134127 82.3449557,9.27457908 C81.3854047,8.83947128 80.2752216,8.62109018 79.0152388,8.62109018 C77.7535915,8.62109018 76.6575562,8.81879125 75.7254685,9.21336619 C74.7925486,9.60959553 74.0185829,10.1472763 73.401907,10.8280628 C72.7843989,11.5088493 72.318355,12.313716 72.0037754,13.2393541 L72.0037754,13.2393541 Z M62.4440509,38.5393007 L67.54307,38.5393007 L67.54307,9.02972754 L62.4440509,9.02972754 L62.4440509,38.5393007 Z M49.8608668,13.1988212 C52.0812329,13.1988212 53.1914159,14.5885191 53.1914159,17.3679149 C53.1914159,18.593827 52.8635208,19.5277371 52.2052339,20.1671636 C51.5477791,20.8074172 50.7380279,21.1283713 49.7784769,21.1283713 L47.9284493,21.1283713 L47.9284493,13.1988212 L49.8608668,13.1988212 Z M47.9284493,25.2958106 L49.5729183,25.2958106 C51.1091986,25.2958106 52.1902539,25.6713599 52.8219097,26.4199769 C53.4519012,27.1694211 53.767313,28.3076499 53.767313,29.833836 C53.767313,31.3318972 53.4935122,32.4626812 52.9459107,33.2261878 C52.3966447,33.9888673 51.4370937,34.370207 50.0672577,34.370207 L47.9284493,34.370207 L47.9284493,25.2958106 Z M50.3951528,9.02972754 L42.8294302,9.02972754 L42.8294302,38.5393007 L50.88866,38.5393007 C52.3417181,38.5393007 53.5759021,38.3217468 54.5903797,37.8841574 C55.6040251,37.4498768 56.4254274,36.8493288 57.0570833,36.0858221 C57.6870747,35.3239699 58.1464608,34.423975 58.4344093,33.3891464 C58.7215256,32.3543178 58.8663321,31.2227067 58.8663321,29.9967946 C58.8663321,28.0892688 58.5093092,26.5912075 57.7977601,25.5009565 C57.0845466,24.4107054 56.070069,23.5801954 54.7534951,23.0085994 C55.3576876,22.7620935 55.8853159,22.4221138 56.3363797,21.9861788 C56.7899403,21.5510711 57.1594465,21.0597136 57.447395,20.514588 C57.7361757,19.9702897 57.9483921,19.3771865 58.0848764,18.7369328 C58.2221929,18.0966791 58.290435,17.4630431 58.290435,16.8360246 C58.290435,14.3023075 57.6596114,12.3683113 56.3979641,11.0332087 C55.1379813,9.69727885 53.1373216,9.02972754 50.3951528,9.02972754 L50.3951528,9.02972754 Z M19.6137885,27.4026919 L19.6137885,21.0100815 L26.0460259,21.0100815 L26.0460259,27.4026919 L21.6427437,27.4026919 L19.6137885,29.4194082 L19.6137885,27.4026919 Z M15.2263185,27.4026919 L9.81604867,27.4026919 L9.81604867,31.7636962 L15.2263185,31.7636962 L15.2263185,37.0098058 L19.6137885,37.0098058 L19.6137885,31.7636962 L26.0460259,31.7636962 L26.0460259,37.0098058 L30.4326637,37.0098058 L30.4326637,31.7636962 L35.8429335,31.7636962 L35.8429335,27.4026919 L30.4326637,27.4026919 L30.4326637,21.0100815 L35.8429335,21.0100815 L35.8429335,16.6490772 L30.4326637,16.6490772 L30.4326637,11.4037948 L26.0460259,11.4037948 L26.0460259,16.6490772 L19.6137885,16.6490772 L19.6137885,11.4037948 L15.2263185,11.4037948 L15.2263185,16.6490772 L9.8168809,16.6490772 L9.8168809,21.0100815 L15.2263185,21.0100815 L15.2263185,27.4026919 Z M3.82572071,44.1990108 L160.175112,44.1990108 L160.175112,3.8026436 L3.82572071,3.8026436 L3.82572071,44.1990108 Z M0,48 L164,48 L164,0 L0,0 L0,48 Z" id="Fill-1" fill="#FFFFFE" mask="url(#mask-2)"></path>
                    </g>
                </g>
            </g>
        </g>
    </g>
</svg>